# This file uses centimeters as units for non-parametric coordinates.

g default
v -1.739504 0.014367 1.034314
v 1.739504 0.014367 1.034314
v -1.739504 2.196058 1.034314
v 1.739504 3.354057 1.034314
v -1.739504 2.196058 -1.034314
v 1.739504 3.354057 -1.034314
v -1.739504 0.014367 -1.034314
v 1.739504 0.014367 -1.034314
v 3.157595 0.014367 -1.034314
v 3.157595 0.014367 1.034314
v 3.157595 3.354057 -1.034314
v 3.157595 3.354057 1.034314
v 1.739504 5.456910 1.034314
v 1.739504 5.456910 -1.034314
v 3.157595 4.605904 1.034314
v 3.157595 4.605904 -1.034314
v 3.157595 3.416020 0.931922
v 3.157595 3.416020 -0.931922
v 3.157595 4.543941 -0.931922
v 3.157595 4.543941 0.931922
v 1.809481 3.425134 1.034314
v 3.087619 3.425134 1.034314
v 3.087619 4.559123 1.034314
v 1.809481 5.357979 1.034314
v 1.809481 3.425134 -1.034314
v 3.087619 3.425134 -1.034314
v 1.809481 5.357979 -1.034314
v 3.087619 4.559123 -1.034314
v 1.739504 3.421954 0.959696
v 1.739504 3.421954 -0.959696
v 1.739504 5.389013 0.959696
v 1.739504 5.389013 -0.959696
v 1.354490 5.684455 1.034314
v 1.354490 5.684455 -1.034314
v 1.354490 5.616559 -0.959696
v 1.354490 5.616559 0.959696
v 3.480349 4.407113 1.034314
v 3.480349 4.407113 -1.034314
v 3.480349 4.345149 0.931922
v 3.480349 4.345149 -0.931922
v 3.157595 0.049375 -0.323687
v 3.157595 0.049375 0.323687
v 3.157595 1.297473 -0.323687
v 3.157595 1.297473 0.323687
v 3.078990 0.049375 -0.323687
v 3.078990 0.049375 0.323687
v 3.078990 1.297473 -0.323687
v 3.078990 1.297473 0.323687
v 2.678481 0.049375 -0.929982
v 2.678481 0.049375 0.929982
v 2.678481 1.297473 -0.929982
v 2.678481 1.297473 0.929982
v 0.195705 0.049375 -0.929982
v 0.195705 0.049375 0.929982
v 0.195705 1.297473 -0.929982
v 0.195705 1.297473 0.929982
v -1.739504 2.129075 -1.034314
v -1.739504 2.129075 1.034314
v -1.924713 2.061875 -1.034314
v -1.924713 2.061875 1.034314
v -1.924713 2.128858 1.034314
v -1.924713 2.128858 -1.034314
vt 0.375000 0.000000
vt 0.625000 0.000000
vt 0.375000 0.250000
vt 0.625000 0.250000
vt 0.375000 0.500000
vt 0.625000 0.500000
vt 0.375000 0.750000
vt 0.625000 0.750000
vt 0.375000 1.000000
vt 0.625000 1.000000
vt 0.875000 0.000000
vt 0.875000 0.250000
vt 0.125000 0.000000
vt 0.125000 0.250000
vt 0.625000 0.000000
vt 0.875000 0.000000
vt 0.875000 0.250000
vt 0.625000 0.250000
vt 0.875000 0.250000
vt 0.625000 0.250000
vt 0.625000 0.250000
vt 0.875000 0.250000
vt 0.625000 0.250000
vt 0.875000 0.250000
vt 0.875000 0.250000
vt 0.625000 0.250000
vt 0.625000 0.250000
vt 0.625000 0.250000
vt 0.625000 0.250000
vt 0.625000 0.250000
vt 0.875000 0.250000
vt 0.875000 0.250000
vt 0.875000 0.250000
vt 0.875000 0.250000
vt 0.875000 0.250000
vt 0.625000 0.250000
vt 0.625000 0.250000
vt 0.875000 0.250000
vt 0.625000 0.250000
vt 0.875000 0.250000
vt 0.875000 0.250000
vt 0.625000 0.250000
vt 0.875000 0.250000
vt 0.625000 0.250000
vt 0.625000 0.250000
vt 0.875000 0.250000
vt 0.625000 0.000000
vt 0.875000 0.000000
vt 0.875000 0.250000
vt 0.625000 0.250000
vt 0.625000 0.000000
vt 0.875000 0.000000
vt 0.875000 0.250000
vt 0.625000 0.250000
vt 0.625000 0.000000
vt 0.875000 0.000000
vt 0.875000 0.250000
vt 0.625000 0.250000
vt 0.625000 0.000000
vt 0.875000 0.000000
vt 0.875000 0.250000
vt 0.625000 0.250000
vt 0.125000 0.125000
vt 0.375000 0.625000
vt 0.375000 0.125000
vt 0.125000 0.125000
vt 0.375000 0.125000
vt 0.375000 0.250000
vt 0.125000 0.250000
vn -0.000000 0.000000 1.000000
vn -0.000000 0.000000 1.000000
vn -0.000000 0.000000 1.000000
vn -0.315818 0.948820 0.000000
vn -0.315818 0.948820 0.000000
vn -0.315818 0.948820 0.000000
vn -0.315818 0.948820 0.000000
vn -0.000000 0.000000 -1.000000
vn -0.000000 0.000000 -1.000000
vn -0.000000 0.000000 -1.000000
vn 0.000000 -1.000000 0.000000
vn 0.000000 -1.000000 0.000000
vn 0.000000 -1.000000 0.000000
vn 0.000000 -1.000000 0.000000
vn 1.000000 0.000000 0.000000
vn 1.000000 0.000000 0.000000
vn 1.000000 0.000000 0.000000
vn 1.000000 0.000000 0.000000
vn -1.000000 0.000000 0.000000
vn -1.000000 0.000000 0.000000
vn -1.000000 0.000000 0.000000
vn -1.000000 0.000000 0.000000
vn 0.000000 -1.000000 0.000000
vn 0.000000 -1.000000 0.000000
vn 0.000000 -1.000000 0.000000
vn 0.000000 -1.000000 0.000000
vn 0.000000 0.000000 -1.000000
vn 0.000000 0.000000 -1.000000
vn 0.000000 0.000000 -1.000000
vn 0.000000 0.000000 -1.000000
vn 0.514563 0.857453 0.000000
vn 0.514563 0.857453 0.000000
vn 0.514563 0.857453 0.000000
vn 0.514563 0.857453 0.000000
vn 0.000000 0.000000 1.000000
vn 0.000000 0.000000 1.000000
vn 0.000000 0.000000 1.000000
vn 0.000000 0.000000 1.000000
vn 1.000000 -0.000002 0.000000
vn 1.000000 -0.000002 0.000000
vn 1.000000 -0.000002 0.000000
vn 1.000000 -0.000002 0.000000
vn 1.000000 0.000000 0.000000
vn 1.000000 0.000000 0.000000
vn 1.000000 0.000000 0.000000
vn 1.000000 0.000000 0.000000
vn 1.000000 0.000000 0.000000
vn 1.000000 0.000000 0.000000
vn 1.000000 0.000000 0.000000
vn 1.000000 0.000000 0.000000
vn 1.000000 0.000000 0.000000
vn 1.000000 0.000000 0.000000
vn 1.000000 0.000000 0.000000
vn 1.000000 0.000000 0.000000
vn 0.000000 0.000000 1.000000
vn 0.000000 0.000000 1.000000
vn 0.000000 0.000000 1.000000
vn 0.000000 0.000000 1.000000
vn -0.000001 0.000000 1.000000
vn -0.000001 0.000000 1.000000
vn -0.000001 0.000000 1.000000
vn -0.000001 0.000000 1.000000
vn 0.000000 0.000000 1.000000
vn 0.000000 0.000000 1.000000
vn 0.000000 0.000000 1.000000
vn 0.000000 0.000000 1.000000
vn 0.000000 0.000000 1.000000
vn 0.000000 0.000000 1.000000
vn 0.000000 0.000000 1.000000
vn 0.000000 0.000000 1.000000
vn 0.000000 0.000000 -1.000000
vn 0.000000 0.000000 -1.000000
vn 0.000000 0.000000 -1.000000
vn 0.000000 0.000000 -1.000000
vn 0.000000 0.000000 -1.000000
vn 0.000000 0.000000 -1.000000
vn 0.000000 0.000000 -1.000000
vn 0.000000 0.000000 -1.000000
vn 0.000000 0.000000 -1.000000
vn 0.000000 0.000000 -1.000000
vn 0.000000 0.000000 -1.000000
vn 0.000000 0.000000 -1.000000
vn -0.000000 0.000000 -1.000000
vn -0.000000 0.000000 -1.000000
vn -0.000000 0.000000 -1.000000
vn -0.000000 0.000000 -1.000000
vn -1.000000 -0.000001 0.000000
vn -1.000000 -0.000001 0.000000
vn -1.000000 -0.000001 0.000000
vn -1.000000 -0.000001 0.000000
vn -1.000000 0.000000 0.000000
vn -1.000000 0.000000 0.000000
vn -1.000000 0.000000 0.000000
vn -1.000000 0.000000 0.000000
vn -1.000000 -0.000000 0.000000
vn -1.000000 -0.000000 0.000000
vn -1.000000 -0.000000 0.000000
vn -1.000000 -0.000000 0.000000
vn -1.000000 0.000000 0.000000
vn -1.000000 0.000000 0.000000
vn -1.000000 0.000000 0.000000
vn -1.000000 0.000000 0.000000
vn -0.825611 0.000000 -0.564240
vn -0.825611 0.000000 -0.564240
vn -0.825611 0.000000 -0.564240
vn -0.825611 0.000000 -0.564240
vn 0.729428 0.000000 -0.684058
vn 0.729428 0.000000 -0.684058
vn 0.729428 0.000000 -0.684058
vn 0.729428 0.000000 -0.684058
vn 0.729428 0.000000 0.684058
vn 0.729428 0.000000 0.684058
vn 0.729428 0.000000 0.684058
vn 0.729428 0.000000 0.684058
vn -0.825611 0.000000 0.564240
vn -0.825611 0.000000 0.564240
vn -0.825611 0.000000 0.564240
vn -0.825611 0.000000 0.564240
vn -0.530008 -0.847992 0.000000
vn -0.530008 -0.847992 0.000000
vn -0.530008 -0.847992 0.000000
vn -0.530008 -0.847992 0.000000
vn -0.212025 -0.977264 0.000000
vn -0.212025 -0.977264 0.000000
vn -0.212025 -0.977264 0.000000
vn -0.212025 -0.977264 0.000000
vn -0.405414 -0.914133 0.000000
vn -0.405414 -0.914133 0.000000
vn -0.405414 -0.914133 0.000000
vn -0.405414 -0.914133 0.000000
vn 0.004184 0.999991 0.000000
vn 0.004184 0.999991 0.000000
vn 0.004184 0.999991 0.000000
vn 0.004184 0.999991 0.000000
vn 0.001482 0.997595 -0.069291
vn 0.001482 0.997595 -0.069291
vn 0.001482 0.997595 -0.069291
vn 0.001482 0.997595 -0.069291
vn 0.001482 0.997595 0.069291
vn 0.001482 0.997595 0.069291
vn 0.001482 0.997595 0.069291
vn 0.001482 0.997595 0.069291
vn 0.508790 0.860891 0.000000
vn 0.508790 0.860891 0.000000
vn 0.508790 0.860891 0.000000
vn 0.508790 0.860891 0.000000
vn -0.400534 -0.677718 -0.616661
vn -0.400534 -0.677718 -0.616661
vn -0.400534 -0.677718 -0.616661
vn -0.400534 -0.677718 -0.616661
vn -0.508790 -0.860891 0.000000
vn -0.508790 -0.860891 0.000000
vn -0.508790 -0.860891 0.000000
vn -0.508790 -0.860891 0.000000
vn -0.400534 -0.677718 0.616661
vn -0.400534 -0.677718 0.616661
vn -0.400534 -0.677718 0.616661
vn -0.400534 -0.677718 0.616661
vn 0.524430 0.851454 0.000000
vn 0.524430 0.851454 0.000000
vn 0.524430 0.851454 0.000000
vn 0.524430 0.851454 0.000000
vn -0.466184 -0.756887 0.458034
vn -0.466184 -0.756887 0.458034
vn -0.466184 -0.756887 0.458034
vn -0.466184 -0.756887 0.458034
vn -0.524430 -0.851454 0.000000
vn -0.524430 -0.851454 0.000000
vn -0.524430 -0.851454 0.000000
vn -0.524430 -0.851454 0.000000
vn -0.466184 -0.756887 -0.458034
vn -0.466184 -0.756887 -0.458034
vn -0.466184 -0.756887 -0.458034
vn -0.466184 -0.756887 -0.458034
vn 1.000000 0.000000 0.000000
vn 1.000000 0.000000 0.000000
vn 1.000000 0.000000 0.000000
vn 1.000000 0.000000 0.000000
vn 1.000000 0.000000 0.000000
vn 1.000000 0.000000 0.000000
vn 1.000000 0.000000 0.000000
vn 1.000000 0.000000 0.000000
vn 1.000000 0.000000 0.000000
vn 1.000000 0.000000 0.000000
vn 1.000000 0.000000 0.000000
vn 1.000000 0.000000 0.000000
vn 1.000000 0.000000 0.000000
vn 1.000000 0.000000 0.000000
vn 1.000000 0.000000 0.000000
vn 1.000000 0.000000 0.000000
vn 0.000000 1.000000 0.000000
vn 0.000000 1.000000 0.000000
vn 0.000000 1.000000 0.000000
vn 0.000000 1.000000 0.000000
vn 0.000000 0.000000 1.000000
vn 0.000000 0.000000 1.000000
vn 0.000000 0.000000 1.000000
vn 0.000000 0.000000 1.000000
vn 0.000000 -1.000000 0.000000
vn 0.000000 -1.000000 0.000000
vn 0.000000 -1.000000 0.000000
vn 0.000000 -1.000000 0.000000
vn 0.000000 0.000000 -1.000000
vn 0.000000 0.000000 -1.000000
vn 0.000000 0.000000 -1.000000
vn 0.000000 0.000000 -1.000000
vn 0.000000 1.000000 0.000000
vn 0.000000 1.000000 0.000000
vn 0.000000 1.000000 0.000000
vn 0.000000 1.000000 0.000000
vn -0.834385 0.000000 0.551182
vn -0.834385 0.000000 0.551182
vn -0.834385 0.000000 0.551182
vn -0.834385 0.000000 0.551182
vn 0.000000 -1.000000 0.000000
vn 0.000000 -1.000000 0.000000
vn 0.000000 -1.000000 0.000000
vn 0.000000 -1.000000 0.000000
vn -0.834385 0.000000 -0.551182
vn -0.834385 0.000000 -0.551182
vn -0.834385 0.000000 -0.551182
vn -0.834385 0.000000 -0.551182
vn 0.000000 1.000000 0.000000
vn 0.000000 1.000000 0.000000
vn 0.000000 1.000000 0.000000
vn 0.000000 1.000000 0.000000
vn 0.000000 0.000000 1.000000
vn 0.000000 0.000000 1.000000
vn 0.000000 0.000000 1.000000
vn 0.000000 0.000000 1.000000
vn 0.000000 -1.000000 0.000000
vn 0.000000 -1.000000 0.000000
vn 0.000000 -1.000000 0.000000
vn 0.000000 -1.000000 0.000000
vn 0.000000 0.000000 -1.000000
vn 0.000000 0.000000 -1.000000
vn 0.000000 0.000000 -1.000000
vn 0.000000 0.000000 -1.000000
vn 0.000000 0.000000 -1.000000
vn 0.000000 0.000000 -1.000000
vn -1.000000 0.000000 0.000000
vn -1.000000 0.000000 0.000000
vn -1.000000 0.000000 0.000000
vn -1.000000 0.000000 0.000000
vn 0.000000 0.000000 1.000000
vn 0.000000 0.000000 1.000000
vn 0.341075 -0.940036 0.000000
vn 0.341075 -0.940036 0.000000
vn 0.341075 -0.940036 0.000000
vn 0.341075 -0.940036 0.000000
vn 0.000000 0.000000 1.000000
vn 0.000000 0.000000 1.000000
vn 0.000000 0.000000 1.000000
vn 0.000000 0.000000 1.000000
vn -0.341075 0.940036 0.000000
vn -0.341075 0.940036 0.000000
vn -0.341075 0.940036 0.000000
vn -0.341075 0.940036 0.000000
vn 0.000000 0.000000 -1.000000
vn 0.000000 0.000000 -1.000000
vn 0.000000 0.000000 -1.000000
vn 0.000000 0.000000 -1.000000
s 1
g pCube1
f 58/65/1 4/4/2 3/3/3
s off
f 3/3/4 4/4/5 6/6/6 5/5/7
s 2
f 5/5/8 6/6/9 57/64/10
s off
f 7/7/11 8/8/12 2/10/13 1/9/14
f 54/59/15 53/60/16 55/61/17 56/62/18
f 59/66/19 60/67/20 61/68/21 62/69/22
f 2/2/23 8/11/24 9/16/25 10/15/26
f 8/11/27 6/12/28 11/17/29 9/16/30
f 14/19/31 13/20/32 15/21/33 16/22/34
f 4/4/35 2/2/36 10/15/37 12/18/38
f 12/18/39 11/17/40 18/24/41 17/23/42
f 11/17/43 16/22/44 19/25/45 18/24/46
f 38/43/47 37/44/48 39/45/49 40/46/50
f 15/21/51 12/18/52 17/23/53 20/26/54
f 4/4/55 12/18/56 22/28/57 21/27/58
f 12/18/59 15/21/60 23/29/61 22/28/62
f 15/21/63 13/20/64 24/30/65 23/29/66
f 13/20/67 4/4/68 21/27/69 24/30/70
f 11/17/71 6/12/72 25/32/73 26/31/74
f 6/12/75 14/19/76 27/33/77 25/32/78
f 14/19/79 16/22/80 28/34/81 27/33/82
f 16/22/83 11/17/84 26/31/85 28/34/86
f 6/12/87 4/4/88 29/36/89 30/35/90
f 4/4/91 13/20/92 31/37/93 29/36/94
f 33/39/95 34/40/96 35/41/97 36/42/98
f 14/19/99 6/12/100 30/35/101 32/38/102
f 20/26/103 17/23/104 22/28/105 23/29/106
f 24/30/107 21/27/108 29/36/109 31/37/110
f 25/32/111 27/33/112 32/38/113 30/35/114
f 18/24/115 19/25/116 28/34/117 26/31/118
f 23/29/119 24/30/120 27/33/121 28/34/122
f 19/25/123 20/26/124 23/29/125 28/34/126
f 31/37/127 32/38/128 27/33/129 24/30/130
f 17/23/131 18/24/132 30/35/133 29/36/134
f 21/27/135 22/28/136 17/23/137 29/36/138
f 26/31/139 25/32/140 30/35/141 18/24/142
f 13/20/143 14/19/144 34/40/145 33/39/146
f 14/19/147 32/38/148 35/41/149 34/40/150
f 32/38/151 31/37/152 36/42/153 35/41/154
f 31/37/155 13/20/156 33/39/157 36/42/158
f 16/22/159 15/21/160 37/44/161 38/43/162
f 15/21/163 20/26/164 39/45/165 37/44/166
f 20/26/167 19/25/168 40/46/169 39/45/170
f 19/25/171 16/22/172 38/43/173 40/46/174
f 10/15/175 9/16/176 41/48/177 42/47/178
f 9/16/179 11/17/180 43/49/181 41/48/182
f 11/17/183 12/18/184 44/50/185 43/49/186
f 12/18/187 10/15/188 42/47/189 44/50/190
f 42/47/191 41/48/192 45/52/193 46/51/194
f 41/48/195 43/49/196 47/53/197 45/52/198
f 43/49/199 44/50/200 48/54/201 47/53/202
f 44/50/203 42/47/204 46/51/205 48/54/206
f 46/51/207 45/52/208 49/56/209 50/55/210
f 45/52/211 47/53/212 51/57/213 49/56/214
f 47/53/215 48/54/216 52/58/217 51/57/218
f 48/54/219 46/51/220 50/55/221 52/58/222
f 50/55/223 49/56/224 53/60/225 54/59/226
f 49/56/227 51/57/228 55/61/229 53/60/230
f 51/57/231 52/58/232 56/62/233 55/61/234
f 52/58/235 50/55/236 54/59/237 56/62/238
s 2
f 57/64/10 6/6/9 8/8/239 7/7/240
s off
f 7/13/241 1/1/242 58/65/243 57/63/244
s 1
f 1/1/245 2/2/246 4/4/2 58/65/1
s off
f 57/63/247 58/65/248 60/67/249 59/66/250
f 58/65/251 3/3/252 61/68/253 60/67/254
f 3/3/255 5/14/256 62/69/257 61/68/258
f 5/14/259 57/63/260 59/66/261 62/69/262
